<?xml version="1.0" encoding="UTF-8" standalone="no"?>
<!-- Created with Inkscape (http://www.inkscape.org/) -->

<svg
   xmlns:dc="http://purl.org/dc/elements/1.1/"
   xmlns:cc="http://creativecommons.org/ns#"
   xmlns:rdf="http://www.w3.org/1999/02/22-rdf-syntax-ns#"
   xmlns:svg="http://www.w3.org/2000/svg"
   xmlns="http://www.w3.org/2000/svg"
   xmlns:sodipodi="http://sodipodi.sourceforge.net/DTD/sodipodi-0.dtd"
   xmlns:inkscape="http://www.inkscape.org/namespaces/inkscape"
   width="512"
   height="512"
   viewBox="0 0 135.46666 135.46666"
   version="1.1"
   id="svg8"
   inkscape:version="0.92.1 r15371"
   sodipodi:docname="str.svg">
  <defs
     id="defs2" />
  <sodipodi:namedview
     id="base"
     pagecolor="#ffffff"
     bordercolor="#666666"
     borderopacity="1.0"
     inkscape:pageopacity="0.0"
     inkscape:pageshadow="2"
     inkscape:zoom="0.98994949"
     inkscape:cx="289.85598"
     inkscape:cy="303.61199"
     inkscape:document-units="mm"
     inkscape:current-layer="text4509"
     showgrid="false"
     units="px"
     inkscape:window-width="1280"
     inkscape:window-height="897"
     inkscape:window-x="-8"
     inkscape:window-y="-8"
     inkscape:window-maximized="1" />
  <metadata
     id="metadata5">
    <rdf:RDF>
      <cc:Work
         rdf:about="">
        <dc:format>image/svg+xml</dc:format>
        <dc:type
           rdf:resource="http://purl.org/dc/dcmitype/StillImage" />
        <dc:title></dc:title>
      </cc:Work>
    </rdf:RDF>
  </metadata>
  <g
     inkscape:label="Camada 1"
     inkscape:groupmode="layer"
     id="layer1"
     transform="translate(0,-161.53336)">
    <g
       aria-label="str"
       style="font-style:normal;font-weight:normal;font-size:10.58333302px;line-height:1.25;font-family:sans-serif;letter-spacing:0px;word-spacing:0px;fill:#000000;fill-opacity:1;stroke:none;stroke-width:0.26458332"
       id="text4509"
       transform="matrix(9.9151505,0,0,9.9151505,-157.49334,-1961.0311)">
      <path
         d="m 16.016949,224.133 1.457275,-0.31979 q 0.09302,0.60982 0.377238,0.92961 0.28422,0.31236 0.795817,0.31236 0.563273,0 0.847493,-0.29747 0.191203,-0.20825 0.191203,-0.55777 0,-0.238 -0.103353,-0.39417 -0.10852,-0.14874 -0.485758,-0.27517 -1.756999,-0.55778 -2.227254,-1.01887 -0.651123,-0.63959 -0.651123,-1.77745 0,-1.0263 0.563273,-1.72538 0.563273,-0.69908 1.746663,-0.69908 1.126546,0 1.674317,0.52803 0.54777,0.52803 0.754475,1.56177 l -1.369425,0.36441 q -0.08785,-0.46109 -0.335897,-0.70651 -0.242879,-0.24541 -0.697632,-0.24541 -0.573608,0 -0.821655,0.23053 -0.165364,0.16362 -0.165364,0.42392 0,0.22311 0.144694,0.37928 0.19637,0.20823 1.353922,0.58752 1.16272,0.37929 1.62264,0.92963 0.454753,0.55777 0.454753,1.55433 0,1.0858 -0.630453,1.86668 -0.630452,0.7809 -1.865519,0.7809 -1.121379,0 -1.777669,-0.65447 -0.651123,-0.65445 -0.852661,-1.77743 z"
         style="font-style:normal;font-variant:normal;font-weight:bold;font-stretch:normal;font-family:Arial;-inkscape-font-specification:'Arial Bold';stroke-width:0.31740594"
         id="path4518"
         inkscape:connector-curvature="0" />
      <path
         d="m 24.936301,218.48832 v 1.66588 h -0.992188 v 3.18304 q 0,0.9668 0.02584,1.13042 0.03101,0.15618 0.129191,0.2603 0.103352,0.10405 0.248047,0.10405 0.201538,0 0.583943,-0.20079 l 0.124024,1.62126 q -0.506429,0.31236 -1.147217,0.31236 -0.392741,0 -0.707967,-0.18594 -0.315226,-0.19334 -0.465088,-0.49083 -0.144694,-0.30491 -0.201538,-0.81807 -0.04651,-0.36442 -0.04651,-1.47252 v -3.44333 h -0.666626 v -1.66589 h 0.666626 v -1.56921 l 1.457275,-1.21967 v 2.78888 z"
         style="font-style:normal;font-variant:normal;font-weight:bold;font-stretch:normal;font-family:Arial;-inkscape-font-specification:'Arial Bold';stroke-width:0.31740594"
         id="path4520"
         inkscape:connector-curvature="0" />
      <path
         d="m 27.344423,226.3864 h -1.452108 v -7.89808 h 1.348755 v 1.12298 q 0.346232,-0.79576 0.620117,-1.04862 0.279053,-0.25286 0.630452,-0.25286 0.496094,0 0.956014,0.39417 l -0.449585,1.82206 q -0.366902,-0.3421 -0.682129,-0.3421 -0.30489,0 -0.516764,0.24542 -0.211873,0.23798 -0.335897,0.87012 -0.118855,0.63215 -0.118855,2.64759 z"
         style="font-style:normal;font-variant:normal;font-weight:bold;font-stretch:normal;font-family:Arial;-inkscape-font-specification:'Arial Bold';stroke-width:0.31740594"
         id="path4522"
         inkscape:connector-curvature="0" />
    </g>
  </g>
</svg>
