<?xml version="1.0" encoding="UTF-8" standalone="no"?>
<!-- Created with Inkscape (http://www.inkscape.org/) -->

<svg
   xmlns:dc="http://purl.org/dc/elements/1.1/"
   xmlns:cc="http://creativecommons.org/ns#"
   xmlns:rdf="http://www.w3.org/1999/02/22-rdf-syntax-ns#"
   xmlns:svg="http://www.w3.org/2000/svg"
   xmlns="http://www.w3.org/2000/svg"
   xmlns:sodipodi="http://sodipodi.sourceforge.net/DTD/sodipodi-0.dtd"
   xmlns:inkscape="http://www.inkscape.org/namespaces/inkscape"
   width="512"
   height="512"
   viewBox="0 0 135.46666 135.46667"
   version="1.1"
   id="svg4529"
   inkscape:version="0.92.1 r15371"
   sodipodi:docname="vazilha.svg">
  <defs
     id="defs4523" />
  <sodipodi:namedview
     id="base"
     pagecolor="#ffffff"
     bordercolor="#666666"
     borderopacity="1.0"
     inkscape:pageopacity="0.0"
     inkscape:pageshadow="2"
     inkscape:zoom="0.45961941"
     inkscape:cx="13.829295"
     inkscape:cy="84.843797"
     inkscape:document-units="mm"
     inkscape:current-layer="layer1"
     showgrid="false"
     units="px"
     inkscape:pagecheckerboard="true"
     inkscape:window-width="1280"
     inkscape:window-height="897"
     inkscape:window-x="-8"
     inkscape:window-y="-8"
     inkscape:window-maximized="1" />
  <metadata
     id="metadata4526">
    <rdf:RDF>
      <cc:Work
         rdf:about="">
        <dc:format>image/svg+xml</dc:format>
        <dc:type
           rdf:resource="http://purl.org/dc/dcmitype/StillImage" />
        <dc:title></dc:title>
      </cc:Work>
    </rdf:RDF>
  </metadata>
  <g
     inkscape:label="Camada 1"
     inkscape:groupmode="layer"
     id="layer1"
     transform="translate(0,-161.53332)">
    <path
       style="fill:#000000;fill-opacity:1;stroke:none;stroke-width:0.89101201;stroke-opacity:1"
       d="M 93.689453 -0.56640625 L 93.689453 14.240234 L 93.6875 14.240234 L 93.6875 73.068359 L 420.42969 73.068359 L 420.42969 26.240234 L 420.42969 14.240234 L 420.42969 -0.56640625 L 93.689453 -0.56640625 z M 108.7832 26.240234 L 407.30273 26.240234 L 407.30273 60.628906 L 388.64453 60.628906 L 388.64453 34.240234 L 376.70508 34.240234 L 376.70508 60.628906 L 358.04688 60.628906 L 358.04688 34.240234 L 344.99023 34.240234 L 344.99023 61.046875 L 326.33203 61.046875 L 326.33203 34.240234 L 312.71094 34.240234 L 312.71094 61.046875 L 294.05469 61.046875 L 294.05469 34.240234 L 282.11133 34.240234 L 282.11133 61.046875 L 263.45508 61.046875 L 263.45508 34.240234 L 251.51562 34.240234 L 251.51562 61.046875 L 232.85742 61.046875 L 232.85742 34.240234 L 220.91602 34.240234 L 220.91602 61.046875 L 202.25781 61.046875 L 202.25781 34.240234 L 190.31836 34.240234 L 190.31836 61.046875 L 171.66016 61.046875 L 171.66016 34.240234 L 159.71875 34.240234 L 159.71875 61.046875 L 141.0625 61.046875 L 141.0625 34.240234 L 127.44141 34.240234 L 127.44141 61.046875 L 108.7832 61.046875 L 108.7832 26.240234 z M 93.6875 81.654297 L 93.6875 95.654297 L 80.486328 95.654297 L 80.486328 131.45312 L 93.6875 131.45312 L 93.6875 250.41602 L 80.486328 250.41602 L 80.486328 312.64258 L 93.6875 312.64258 L 93.6875 432.18164 L 80.486328 432.18164 L 80.486328 467.98047 L 93.6875 467.98047 L 93.6875 478.45898 L 420.42969 478.45898 L 420.42969 467.98047 L 435.36719 467.98047 L 435.36719 432.18164 L 420.42969 432.18164 L 420.42969 312.64258 L 435.36719 312.64258 L 435.36719 250.41602 L 420.42969 250.41602 L 420.42969 131.45312 L 435.36719 131.45312 L 435.36719 95.654297 L 420.42969 95.654297 L 420.42969 81.654297 L 93.6875 81.654297 z M 305.60156 143.13867 C 315.22908 143.21891 324.49913 146.98615 331.52734 153.72656 C 340.8375 162.66753 345.09818 175.75049 342.86914 188.55273 C 355.20647 185.82365 368.07648 189.45368 377.25 198.25 C 392.56891 212.94072 393.23877 237.43662 378.74609 252.96484 C 364.25265 268.49307 348.92017 271.88506 333.60156 257.19336 C 331.31798 254.97901 319.14047 249.2306 304.87891 266.59961 L 232.72266 333.17969 C 226.92108 340.9705 235.64444 345.30286 237.95117 347.49219 C 253.27038 362.18332 253.9408 386.68083 239.44727 402.20898 C 224.95384 417.73721 200.78538 418.41643 185.4668 403.72461 C 176.1566 394.7841 171.89661 381.70256 174.125 368.90039 C 161.788 371.62929 148.91742 367.99914 139.74414 359.20312 C 124.4256 344.5121 123.75717 320.01437 138.25 304.48633 C 152.74333 288.95886 177.7128 288.95925 193.03125 303.65039 C 193.03125 303.65039 194.23926 306.65516 200.85156 304.24609 C 207.16587 301.94565 218.40835 294.70886 238.23242 275.20117 L 261.14844 250.37305 C 290.03045 214.40578 281.07797 211.67552 279.04297 209.96094 C 263.72443 195.26991 263.05405 170.77214 277.54688 155.24414 C 284.37394 147.92883 293.74455 143.59794 303.66992 143.17188 C 304.31437 143.14137 304.95972 143.13519 305.60156 143.13867 z M 122.25977 486.04102 L 122.25977 512.84766 L 394.71484 512.84766 L 394.71484 486.04102 L 122.25977 486.04102 z "
       transform="matrix(0.26458333,0,0,0.26458333,0,161.53332)"
       id="rect5080" />
  </g>
</svg>
